<?xml version="1.0" encoding="utf-8"?>
<!-- Generator: Adobe Illustrator 18.1.1, SVG Export Plug-In . SVG Version: 6.00 Build 0)  -->
<svg version="1.1" id="Layer_1" xmlns="http://www.w3.org/2000/svg" xmlns:xlink="http://www.w3.org/1999/xlink" x="0px" y="0px"
	 viewBox="0 0 74.8 99.7" enable-background="new 0 0 74.8 99.7" xml:space="preserve">
<path fill="#152D53" d="M50,12.3c5.1,0,10.2,0,15.2,0c3.1,0,5.6,1.2,7.5,3.6c1.3,1.6,2,3.5,2,5.7c0,23,0,46,0,69c0,5-4.1,9.1-9,9.1
	c-18.9,0-37.9,0-56.8,0c-4.8,0-9-4.2-9-9c0-23,0-46,0-69c0-5.2,4.1-9.4,9.3-9.4c4.8,0,9.5,0,14.3,0c0.4,0,0.8,0,1.2,0
	c2-9.2,5.9-12.6,14-12.3C44.4,0.2,48.8,5,50,12.3z M37.3,87.2c1.9,0,3.8,0,5.7,0c4,0,7.9,0,11.9,0c2.8,0,4.4-1.7,4.4-4.5
	c0-0.5,0-1,0-1.5c0.3-4.6-1.6-8.1-5.5-10.5c-3.2-1.9-6.6-2.8-10.3-1.6c-3.7,1.2-7.4,1.3-11.2,0.3c-1.7-0.5-3.4-1.1-5.3-0.8
	c-4.6,0.7-8.3,2.7-10.4,6.9c-1.1,2.1-1,4.3-1,6.6c0,3.7,1.4,5.1,5.1,5.1C26.2,87.2,31.7,87.2,37.3,87.2z M37.4,37.4
	c-6.8,0-12.4,5.5-12.5,12.3c-0.1,6.9,5.5,12.5,12.5,12.6c6.7,0.1,12.4-5.6,12.5-12.4C50,43,44.4,37.4,37.4,37.4z M37.5,7.7
	c-2.7,0-4.7,2-4.7,4.7c0,2.5,2.1,4.6,4.6,4.6c2.6,0,4.7-2.1,4.7-4.8C42,9.8,40,7.7,37.5,7.7z"/>
</svg>
