<?xml version="1.0" encoding="utf-8"?>
<!-- Generator: Adobe Illustrator 18.1.1, SVG Export Plug-In . SVG Version: 6.00 Build 0)  -->
<svg version="1.1" id="Layer_1" xmlns="http://www.w3.org/2000/svg" xmlns:xlink="http://www.w3.org/1999/xlink" x="0px" y="0px"
	 viewBox="0.4 -0.2 99.6 100" enable-background="new 0.4 -0.2 99.6 100" xml:space="preserve">
<path fill="#152D53" d="M60.4,22.5c11.5,0,23,0,34.5,0c2.2,0,3.7,0.9,4.7,2.9c0.3,0.6,0.4,1.3,0.4,2.1c0,10.3,0,20.4,0,30.7
	c0,2.8-2.2,4.9-4.9,4.9c-8.5,0-17,0-25.6,0c-14.5,0-29,0-43.5,0c-3.2,0-5.3-2.2-5.3-5.3c0-9.9,0-19.9,0-29.7c0-3.2,2.2-5.3,5.3-5.3
	C37.4,22.5,48.9,22.5,60.4,22.5z M73.5,42.8c0-7.6-6.3-14.1-13.9-14.1c-7.7-0.1-14.1,6.3-14.2,13.8c-0.1,7.7,6.3,14.2,13.9,14.2
	C67.2,56.8,73.5,50.6,73.5,42.8z M89.8,48.7c-0.1,0-0.1,0.1-0.2,0.1c-0.2,0-0.4,0.1-0.6,0.1c-2.8,0.3-4.8,1.6-5.9,4.3
	c-0.1,0.2-0.5,0.5-0.8,0.5c-1,0.1-2.1,0-3.1,0s-1.7,0.7-1.7,1.5c0,0.9,0.7,1.5,1.7,1.5c1.5,0,3.1,0,4.7,0c1.1,0,1.6-0.3,1.9-1.5
	c0.7-2.6,2.6-3.8,5.3-3.3c1.1,0.2,1.9-0.3,1.9-1.5c0-5.1,0-10.3,0-15.5c0-1-0.6-1.4-1.5-1.4c-0.3,0-0.5,0-0.8,0
	c-3,0.1-4.2-0.7-5-3.6c-0.4-0.8-0.9-1.2-1.8-1.2c-1.5,0-3.1,0-4.7,0c-1,0-1.7,0.6-1.7,1.5s0.7,1.5,1.7,1.5c0.9,0,1.9,0,2.9,0
	c0.6,0,0.9,0.2,1.1,0.7c0.7,1.8,2.2,3.1,4,3.7c0.8,0.3,1.7,0.4,2.7,0.6C89.8,40.8,89.8,44.7,89.8,48.7z M30.8,36.7
	c3-0.3,5.3-1.2,6.8-4.5c0.1-0.2,0.5-0.4,0.7-0.4c0.9,0,1.9,0,2.9,0c1.2,0,1.9-0.6,1.9-1.5c0-1-0.7-1.5-1.9-1.5s-2.6,0-3.8,0
	c-1.9,0-2.1,0.1-2.7,1.9c-0.6,1.8-1.9,2.9-3.9,3c-0.5,0-1,0-1.5,0c-1.1,0-1.7,0.5-1.7,1.5c0,5,0,10.2,0,15.2c0,1.1,0.5,1.6,1.7,1.5
	c0.8,0,1.6-0.1,2.5,0.1c1.7,0.3,2.8,1.6,3.2,3.3c0.2,1,0.8,1.5,1.8,1.5c1.5,0,3.2,0,4.7,0c1,0,1.6-0.7,1.6-1.5
	c0-0.9-0.6-1.5-1.6-1.5c-0.9,0-1.7-0.1-2.7,0c-0.8,0.1-1.3-0.1-1.6-1c-0.2-0.5-0.6-1-1-1.5c-1.4-1.6-3.4-2.2-5.4-2.4
	C30.8,44.7,30.8,40.8,30.8,36.7z"/>
<path fill="#152D53" d="M0.4,98.8c0-12.2,0-24.3,0-36.5c0.5,0,1,0,1.5,0c3.5,0,7,0,10.5,0c3.6,0,6.1,2.2,6.6,5.7
	c0,0.2,0.1,0.4,0.1,0.8c2.5-0.7,4.9-1.4,7.4-2.2c6.8-2.1,13.3-1.5,19.6,2.1c3.8,2.2,7.6,4.2,11.4,6.4c1.4,0.8,2.8,1.8,3.8,3.1
	c0.8,0.8,1.4,2.1,1.6,3.2c0.5,2.7-1.4,4.7-4.2,4.8s-5.4-0.6-8-1.4c-3-0.9-5.8-1.8-8.7-2.9c-0.9-0.3-1.3-1.1-1.1-1.9
	c0.3-0.9,1.1-1.2,2.1-0.9c3.9,1.2,7.8,2.5,11.8,3.6c1.2,0.3,2.6,0.4,3.8,0.5c1.1,0.1,1.7-0.9,1.1-1.8c-0.5-0.9-1.2-1.7-2.1-2.4
	c-1.5-1-3.1-1.9-4.7-2.9c-2.8-1.6-5.5-3.2-8.4-4.7c-4.8-2.8-10.1-3.4-15.4-2.1c-3.3,0.8-6.6,1.9-9.8,2.9c0,5.2,0,10.5,0,15.8
	c0.6-0.3,1.2-0.6,1.7-0.9c2.9-1.7,5.8-1.9,8.8-0.7c4.5,1.8,8.8,4,13.2,5.9c2.7,1.2,5.3,2.6,8.1,3.5c4.2,1.4,8.6,1,12.8,0
	c6.4-1.4,12.3-4.1,18.4-6.5c3.9-1.5,7.6-3.2,11.4-4.8c0.9-0.4,1.6-1.1,2.4-1.8c0.6-0.6,1-1.5,0.5-2.4c-0.5-0.8-1.4-0.8-2.3-0.7
	c-1.7,0.3-3.6,0.6-5.3,1c-7,1.3-14.1,2.7-21,4c-1.1,0.2-1.9-0.3-2.2-1.3c-0.1-0.8,0.5-1.5,1.5-1.7c8.6-1.6,17.2-3.3,25.8-4.8
	c1.7-0.3,3.5-0.2,5,0.8c2.3,1.5,2.5,4.8,0.5,7.1c-1.5,1.8-3.6,3.1-5.7,3.9c-5.9,2.4-11.8,4.7-17.7,7c-4,1.5-8,3.1-12.3,3.8
	c-5.7,1-11.4,0.7-16.8-1.8c-5.2-2.6-10.6-4.9-15.8-7.4c-0.9-0.4-1.9-0.7-3-0.9c-1.6-0.3-3.2-0.3-4.7,0.6c-0.2,0.1-0.7,0.4-1.2,0.6
	c-1.4,0.6-2.4,1.3-2.5,3.3c-0.2,3.1-3,5.2-6.1,5.2c-3.8,0-7.7,0-11.5,0C1,98.8,0.7,98.8,0.4,98.8z"/>
<path fill="#152D53" d="M99.9,20c-0.9-0.2-1.8-0.4-2.8-0.6c-0.1,0-0.3,0-0.4-0.1c-1.6-1.7-3.9-1.5-5.9-2.1
	C74.4,13.4,58.1,9.7,41.6,6c-4.5-1-8.9-2.1-13.4-3.1c-1.1-0.2-1.9,0.1-2.1,1.2c-0.2,1.4-0.8,2.2-2.3,2.3c-0.5,0-1.1,0.3-1.8,0.6
	c0.4-1.5,0.7-3.1,1.3-4.5c0.8-1.9,3.1-3.1,5.2-2.6c10.2,2.4,20.2,4.7,30.3,7c12.2,2.8,24.5,5.5,36.7,8.3c2.3,0.5,3.8,1.7,4.3,4
	c0,0.2,0,0.3,0.1,0.5C100,19.7,100,19.8,99.9,20z"/>
<path fill="#152D53" d="M77.4,19.6c-5,0-10.1,0.1-15.1-0.1c-2.5-0.1-4.9-0.8-7.3-1.3c-9.1-1.8-18.3-3.7-27.5-5.5
	c-1.3-0.3-2.2,0.3-2.5,1.6c-0.3,1.7-0.7,3.5-1,5.2c-1.1,0.2-2.3,0.4-3.4,0.6c0.5-2.4,0.8-4.7,1.4-7c0.7-2.8,3.4-4.1,6.3-3.6
	c10.3,2.1,20.5,4.1,30.8,6.3C65,17,71,18.2,76.8,19.4c0.2,0,0.5,0.1,0.7,0.2C77.4,19.5,77.4,19.5,77.4,19.6z"/>
<path opacity="0" fill="#FFFFFF" d="M73.5,42.8c0,7.7-6.5,14.1-14.2,13.9c-7.7,0-13.9-6.5-13.9-14.2C45.6,35,52,28.7,59.7,28.7
	C67.3,28.8,73.6,35.2,73.5,42.8z M59.5,31.7c-6.1,0-11.1,5.1-11.1,11.1c0,6.1,5,11,11.1,11.1c6.1,0,11.1-5,11.1-11.1
	C70.7,36.7,65.5,31.7,59.5,31.7z"/>
<path opacity="0" fill="#FFFFFF" d="M89.8,48.7c0-3.9,0-7.9,0-11.8c-0.9-0.2-1.7-0.3-2.7-0.6c-1.8-0.6-3.3-1.8-4-3.7
	c-0.2-0.6-0.5-0.8-1.1-0.7c-0.9,0.1-1.9,0-2.9,0c-1,0-1.7-0.6-1.7-1.5s0.7-1.5,1.7-1.5c1.5,0,3.1,0,4.7,0c0.9,0,1.5,0.4,1.7,1.3
	c0.9,2.9,2.1,3.7,5,3.6c0.3,0,0.5,0,0.8,0c1,0,1.5,0.5,1.5,1.4c0,5.1,0,10.3,0,15.5c0,1.1-0.8,1.7-1.9,1.5c-2.8-0.4-4.5,0.7-5.3,3.3
	C85.4,56.6,85,57,83.8,57c-1.5,0-3.1,0-4.7,0c-1,0-1.7-0.6-1.7-1.5c0-0.9,0.7-1.5,1.7-1.5s2.1,0,3.1,0c0.3,0,0.7-0.2,0.8-0.5
	c1.1-2.6,3.2-4,5.9-4.3c0.2,0,0.4-0.1,0.6-0.1C89.7,48.8,89.7,48.7,89.8,48.7z"/>
<path fill="#152D53" d="M59.5,31.8c-6,0-10.9,4.9-10.9,10.9s4.9,10.9,10.9,10.9s10.9-4.9,10.9-10.9S65.5,31.8,59.5,31.8z M58.2,40.8
	c0.5,0.3,1.1,0.5,1.6,0.8c0.7,0.3,1.3,0.5,2.1,0.9c1.3,0.7,2.2,1.7,2.1,3.3c0,1.6-0.8,2.9-2.3,3.4c-0.9,0.3-1.1,0.8-1,1.6
	c0,0.1,0,0.2,0,0.5c-0.4,0-0.7,0-1.1,0c-0.3,0-0.7,0-1.1,0c0-0.4,0-0.7,0-1.1s-0.1-0.6-0.5-0.8c-1.5-0.6-2.5-1.6-2.8-3.4
	c0-0.1,0-0.1,0-0.3c0.7,0,1.3,0,2.1,0c0.1,0,0.2,0.2,0.2,0.3c0.3,0.9,0.9,1.2,1.8,1.3c0.8,0.1,1.5-0.1,2.2-0.8
	c0.5-0.6,0.4-1.5-0.3-1.9c-0.6-0.4-1.3-0.6-1.9-0.9c-0.6-0.3-1.2-0.5-1.8-0.8c-1.3-0.8-2.1-1.9-1.9-3.5c0.1-1.6,1-2.7,2.5-3.3
	c0.5-0.2,0.7-0.5,0.7-1c-0.1-0.2,0-0.5,0-0.8c0.8,0,1.4,0,2.3,0c0,0.6,0,1.1,0,1.6c1.8,0.6,3.1,1.7,3.2,3.8c-0.7,0-1.3,0-2.1,0
	c-0.1,0-0.3-0.2-0.3-0.3c-0.3-0.8-0.9-1.2-1.7-1.3c-0.8-0.1-1.5,0.2-2.1,0.8C57.3,39.4,57.4,40.4,58.2,40.8z"/>
</svg>
