<?xml version="1.0" encoding="utf-8"?>
<!-- Generator: Adobe Illustrator 18.1.1, SVG Export Plug-In . SVG Version: 6.00 Build 0)  -->
<svg version="1.1" id="Layer_1" xmlns="http://www.w3.org/2000/svg" xmlns:xlink="http://www.w3.org/1999/xlink" x="0px" y="0px"
	 viewBox="0 0 74.5 99.4" enable-background="new 0 0 74.5 99.4" xml:space="preserve">
<g>
	<path fill="#152D53" d="M43.5,0.1c0,0.5,0,0.9,0,1.4c0,8,0,16.1,0,24.1c0,2.8,1.1,4.6,3.4,5.2c0.6,0.2,1.2,0.2,1.8,0.2
		c8.1,0,16.2,0,24.3,0c0.5,0,0.9,0,1.5,0c0,0.5,0,0.9,0,1.3c0,20.8,0,41.6,0,62.4c0,2.9-1.9,4.7-4.8,4.7c-21.7,0-43.3,0-65,0
		c-2.9,0-4.8-1.9-4.8-4.8c0-30,0-59.9,0-89.9C0,2,1.8,0,4.4,0c12.8,0,25.5,0,38.3,0C42.9,0,43.1,0.1,43.5,0.1z M37.2,74.6
		C37.2,74.6,37.2,74.6,37.2,74.6c5.3,0,10.5,0,15.8,0c1.9,0,2.9-0.9,2.9-2.5c0-2.8-0.7-3.7-2.9-3.7c-10.5,0-21,0-31.6,0
		c-2.2,0-2.9,1-2.9,3.6c0,1.7,1,2.7,2.9,2.7C26.8,74.6,32,74.6,37.2,74.6z M37.3,55.9c-5.4,0-10.8,0-16.1,0c-1.6,0-2.5,1-2.5,2.5
		c0,0.3,0,0.7,0,1c0,1.6,1,2.6,2.6,2.6c10.7,0,21.4,0,32.1,0c0.5,0,1-0.1,1.4-0.3c0.9-0.5,1.2-1.2,1.3-2.2c0.2-2.7-0.8-3.7-3.5-3.6
		C47.4,56,42.3,55.9,37.3,55.9z M37.2,49.6c5.2,0,10.4-0.1,15.6,0c2.3,0,3.4-1.2,3.1-3.1c0-0.2,0-0.4,0-0.6c0-1.6-1-2.6-2.5-2.6
		c-10.7,0-21.5,0-32.2,0c-0.7,0-1.5,0.4-1.9,0.9c-1,1.1-0.8,2.6-0.3,3.9c0.4,1.2,1.5,1.4,2.7,1.4C26.8,49.6,32,49.6,37.2,49.6z"/>
	<path fill="#152D53" d="M74.5,24.7c-8.2,0-16.4,0-24.6,0c0-8.2,0-16.4,0-24.6c1.8-0.3,3.3,0,4.5,1.3c6.3,6.3,12.5,12.5,18.8,18.8
		C74.4,21.4,74.8,22.9,74.5,24.7z"/>
</g>
</svg>
