<?xml version="1.0" encoding="utf-8"?>
<!-- Generator: Adobe Illustrator 18.1.1, SVG Export Plug-In . SVG Version: 6.00 Build 0)  -->
<svg version="1.1" id="Layer_1" xmlns="http://www.w3.org/2000/svg" xmlns:xlink="http://www.w3.org/1999/xlink" x="0px" y="0px"
	 viewBox="0 0 86.5 98.9" enable-background="new 0 0 86.5 98.9" xml:space="preserve">
<g>
	<path fill="#152D53" d="M21.2,19.7c-4.3-1-8.5-2-12.9-3.1c0,0.9,0,1.7,0,2.5c0,2.3,0,4.6,0,6.9c0,0.5,0.3,1.2,0.7,1.5
		c2,1.8,2.1,4.6,0.1,6.5c-0.6,0.5-0.7,1-0.5,1.7c0.9,3.5,1.8,7,2.6,10.5c0.1,0.6,0.2,1.2,0.1,1.8c-0.1,0.8-0.6,1.4-1.6,1.4
		c-2.4,0-4.8,0-7.1,0c-1.5,0-2.2-0.7-2-2.3c0.3-1.6,0.7-3.1,1.1-4.6c0.6-2.3,1.2-4.7,1.7-7c0.1-0.4-0.1-1-0.4-1.2
		C1,32,1,29.4,3.3,27.4c0.3-0.3,0.6-0.8,0.6-1.2c0-3.2,0-6.5,0-9.7c0-0.8-0.3-1-1-1.2c-1.4-0.3-2.5-1-2.8-2.6
		c-0.3-1.5,0.5-2.8,2.1-3.2c2.8-0.8,5.5-1.4,8.3-2.1C20,5.1,29.6,2.8,39.1,0.5c3.1-0.7,6.2-0.5,9.3,0.2C60,3.5,71.6,6.3,83.2,9.1
		c2.1,0.5,3.2,1.5,3.2,3c0.1,1.6-1,2.8-2.9,3.2c-5.7,1.4-11.4,2.7-17,4.1c-0.4,0.1-0.8,0.2-1.2,0.3c5.1,12.7,2.7,23.6-8.6,31.6
		c-8.2,5.9-19.5,5.7-27.4-0.2C18.4,43,16.1,32.3,21.2,19.7z"/>
	<path fill="#152D53" d="M43.4,80.7c1.1-1.2,2.1-2.4,3.2-3.5c4.8-4.8,9.6-9.7,14.5-14.5c0.4-0.4,1.1-0.7,1.7-0.6
		c10.2,1.2,17.5,6.4,21.7,15.7c1.9,4.2,2.3,8.7,1.9,13.3c-0.4,4.1-4.6,7.7-8.8,7.7c-22.9,0-45.8,0-68.7,0c-4.7,0-8.7-4.2-8.9-8.9
		c-0.1-4.8,0.5-9.4,2.7-13.7c4.2-8,10.9-12.7,19.9-14.1c1.6-0.2,2.5,0.2,3.6,1.3c5.3,5.4,10.6,10.7,16,16
		C42.5,79.8,42.8,80.1,43.4,80.7z"/>
</g>
</svg>
