<?xml version="1.0" encoding="utf-8"?>
<!-- Generator: Adobe Illustrator 18.1.1, SVG Export Plug-In . SVG Version: 6.00 Build 0)  -->
<svg version="1.1" id="Layer_1" xmlns="http://www.w3.org/2000/svg" xmlns:xlink="http://www.w3.org/1999/xlink" x="0px" y="0px"
	 viewBox="0 0 100 100" enable-background="new 0 0 100 100" xml:space="preserve">
<path fill="#152D53" d="M62.5,48.5C41.4,58.9,40.1,87.7,60.2,100c-0.4,0-0.6,0.1-0.8,0.1c-15.8,0-31.7,0-47.5,0
	C5.2,100,0.1,95,0,88.2c0-5.2,0-10.5,0.2-15.6c0.5-9,4-16.5,10.6-22.7c6.9-6.5,15.1-9.7,24.6-9.8c5-0.1,10.1,0.1,15,1.7
	c4,1.4,7.9,3.3,11.2,6C62,48,62.2,48.2,62.5,48.5z"/>
<path fill="#152D53" d="M74.9,49.6c13.8,0,25.1,11.3,25.1,25.1S88.7,100,74.9,100C61,100.1,49.6,88.7,49.6,74.9
	C49.6,60.9,60.8,49.6,74.9,49.6z M75.1,64.9c-4.6,0-9.2,0-13.8,0c-2.2,0-3.4,1.3-3.4,3.4c0,3.9,0,8,0,11.9c0,2.2,1.3,3.4,3.4,3.4
	c9.2,0,18.5,0,27.6,0c2,0,3.3-1.3,3.3-3.3c0-4,0-8,0-12c0-2.2-1.3-3.4-3.4-3.4C84.3,64.9,79.6,64.9,75.1,64.9z"/>
<path fill="#152D53" d="M55.6,18.1c0.1,9.6-8,18-17.6,18.1c-10.3,0.2-18.5-7.8-18.7-18C19.3,8.4,27.4,0.1,37.3,0
	C47.3-0.1,55.5,8,55.6,18.1z"/>
<path fill="#152D53" d="M67.7,78.4c0-0.1,0.1-0.1,0.1-0.2c0.1-0.1,0.1-0.1,0.2-0.2c0,0,0,0,0,0c0.7-0.3,1.2-0.9,1.2-1.7
	c0-0.8-0.4-1.3-1.1-1.7c-0.3-0.1-0.7-0.2-1-0.4c-0.3-0.1-0.6-0.2-0.9-0.4c-0.4-0.2-0.4-0.7-0.2-1c0.2-0.3,0.6-0.5,1-0.4
	c0.4,0.1,0.8,0.3,0.9,0.7c0.1,0,0.1,0.1,0.2,0.1h1c-0.1-1-0.7-1.6-1.6-1.9v-0.8h-1.1v0.5c0.1,0.3,0,0.4-0.3,0.5
	c-0.8,0.3-1.2,0.9-1.3,1.7c-0.1,0.8,0.3,1.4,1,1.8c0.3,0.1,0.6,0.3,0.9,0.4c0.3,0.2,0.7,0.3,1,0.5c0.4,0.2,0.5,0.7,0.2,1
	s-0.7,0.5-1.1,0.4s-0.8-0.2-0.9-0.7l-0.1-0.1h-1v0.1c0.1,0.8,0.6,1.4,1.4,1.7c0.3,0.1,0.3,0.2,0.3,0.4v0.5h1.1L67.7,78.4
	C67.6,78.4,67.6,78.4,67.7,78.4C67.6,78.4,67.7,78.4,67.7,78.4z"/>
<path fill="none" d="M66.9,68.7c-3.3,0-6,2.7-6,6c0,3.3,2.7,6,6,6s6-2.7,6-6S70.1,68.7,66.9,68.7z"/>
<path fill="none" d="M87.9,73.5c-3.9,0-7.8,0-11.7,0c-0.6,0-1.2,0.1-1.2,0.8c0,0.8,0.6,0.8,1.2,0.8c1.9,0,3.8,0,5.8,0c2,0,3.9,0,6,0
	c0.6,0,1.2-0.1,1.2-0.8C89.1,73.5,88.5,73.5,87.9,73.5z"/>
<path fill="none" d="M87.9,76.6c-1.9,0-3.8,0-5.9,0c-1.9,0-3.9,0-5.9,0c-0.6,0-1.2,0.1-1.2,0.8c0,0.8,0.6,0.8,1.2,0.8
	c3.9,0,7.8,0,11.7,0c0.6,0,1.2-0.1,1.2-0.8C89.1,76.6,88.5,76.6,87.9,76.6z"/>
<path fill="#152D53" d="M88.5,66.5c-4.4,0-8.9,0-13.3,0c-4.5,0-9.1,0-13.5,0c-1.6,0-2.1,0.6-2.1,2.1c0,3.7,0,7.6,0,11.4
	c0,1.6,0.5,2.1,2,2.1c9.1,0,18.1,0,27.1,0c1.5,0,2-0.6,2-2.1c0-3.7,0-7.6,0-11.3C90.7,67,90.2,66.5,88.5,66.5z M76,70.4h7.6
	c0.5,0,0.8,0.4,0.8,0.8s-0.4,0.8-0.8,0.8H76c-0.5,0-0.8-0.4-0.8-0.8S75.5,70.4,76,70.4z M66.9,80.6c-3.2,0-6-2.6-6-6
	c0-3.2,2.6-6,6-6c3.2,0,6,2.7,6,6S70.1,80.6,66.9,80.6z M87.9,78.2c-3.9,0-7.8,0-11.7,0c-0.6,0-1.2,0-1.2-0.8c0-0.7,0.6-0.8,1.2-0.8
	c1.9,0,3.9,0,5.9,0c2,0,3.9,0,5.9,0c0.6,0,1.2,0,1.2,0.8C89.1,78.1,88.5,78.2,87.9,78.2z M87.9,75.1c-2,0-3.9,0-6,0
	c-1.9,0-3.8,0-5.8,0c-0.6,0-1.2,0-1.2-0.8c0-0.7,0.6-0.8,1.2-0.8c3.9,0,7.8,0,11.7,0c0.6,0,1.2,0,1.2,0.8
	C89.1,75,88.5,75.1,87.9,75.1z"/>
</svg>
